<?xml version="1.0" encoding="UTF-8"?>
<!DOCTYPE svg PUBLIC "-//W3C//DTD SVG 1.1//EN" "http://www.w3.org/Graphics/SVG/1.1/DTD/svg11.dtd">
<!-- Creator: CorelDRAW X5 -->
<svg xmlns="http://www.w3.org/2000/svg" xml:space="preserve" width="42.3332mm" height="12.7mm" style="shape-rendering:geometricPrecision; text-rendering:geometricPrecision; image-rendering:optimizeQuality; fill-rule:evenodd; clip-rule:evenodd"
viewBox="0 0 4233 1270"
 xmlns:xlink="http://www.w3.org/1999/xlink">
 <defs>
  <style type="text/css">
   <![CDATA[
    .fil0 {fill:#009345}
    .fil1 {fill:black;fill-rule:nonzero}
    .fil2 {fill:#0071BD;fill-rule:nonzero}
   ]]>
  </style>
 </defs>
 <g id="Layer_x0020_1">
  <metadata id="CorelCorpID_0Corel-Layer"/>
  <rect class="fil0" x="545" y="992" width="20" height="273"/>
  <rect class="fil0" x="545" y="6" width="20" height="292"/>
  <path class="fil1" d="M1381 937c-33,0 -61,-3 -84,-10 -23,-7 -45,-15 -65,-25l0 -75 4 0c20,19 42,33 67,43 25,10 49,15 72,15 33,0 58,-7 75,-21 17,-14 25,-32 25,-55 0,-18 -4,-33 -13,-44 -9,-11 -23,-20 -42,-25 -14,-4 -27,-7 -38,-10 -11,-3 -26,-6 -43,-11 -16,-4 -30,-9 -42,-16 -12,-6 -23,-14 -33,-25 -9,-10 -16,-22 -22,-35 -5,-13 -8,-29 -8,-47 0,-37 14,-67 43,-92 29,-25 65,-37 109,-37 25,0 49,2 72,8 23,5 43,12 63,22l0 72 -5 0c-14,-13 -33,-25 -55,-34 -22,-10 -46,-15 -71,-15 -28,0 -50,7 -68,20 -17,13 -26,30 -26,51 0,19 5,34 15,46 10,11 25,20 44,25 13,3 28,7 47,12 18,4 34,8 46,12 31,10 54,24 68,43 14,19 22,43 22,71 0,18 -4,35 -11,52 -7,17 -17,32 -30,44 -15,13 -31,23 -49,30 -18,7 -41,11 -69,11zm496 -177c0,57 -14,101 -41,132 -28,31 -64,47 -110,47 -47,0 -84,-16 -111,-48 -27,-32 -40,-76 -40,-131 0,-57 14,-101 42,-132 28,-31 64,-47 110,-47 46,0 82,16 110,47 27,31 41,75 41,132zm-59 0c0,-44 -8,-76 -24,-98 -16,-21 -39,-32 -68,-32 -30,0 -53,11 -69,32 -16,21 -24,54 -24,98 0,42 8,75 24,97 16,22 39,33 69,33 29,0 52,-11 68,-32 16,-22 24,-54 24,-97zm176 169l-57 0 0 -472 57 0 0 472zm348 0l-57 0 0 -38c-18,15 -34,27 -50,35 -16,8 -33,12 -53,12 -15,0 -29,-2 -42,-7 -13,-5 -24,-13 -34,-23 -10,-11 -17,-24 -23,-40 -5,-16 -8,-35 -8,-58l0 -220 57 0 0 193c0,18 1,33 2,45 1,12 4,22 9,31 5,9 11,15 19,19 8,4 19,6 34,6 14,0 29,-4 45,-12 16,-8 30,-18 43,-29l0 -253 57 0 0 339zm185 7c-31,0 -55,-9 -73,-27 -17,-18 -26,-46 -26,-84l0 -188 -39 0 0 -47 39 0 0 -97 57 0 0 97 105 0 0 47 -105 0 0 161c0,17 0,30 1,40 1,9 3,18 7,26 3,7 9,12 17,16 8,4 18,5 31,5 9,0 18,-1 27,-4 9,-3 15,-5 19,-7l3 0 0 51c-11,3 -22,5 -33,7 -11,2 -21,3 -30,3zm164 -7l-57 0 0 -339 57 0 0 339zm4 -396l-65 0 0 -59 65 0 0 59zm359 226c0,57 -14,101 -41,132 -28,31 -64,47 -110,47 -47,0 -84,-16 -111,-48 -27,-32 -40,-76 -40,-131 0,-57 14,-101 42,-132 28,-31 64,-47 110,-47 46,0 82,16 110,47 27,31 41,75 41,132zm-59 0c0,-44 -8,-76 -24,-98 -16,-21 -39,-32 -68,-32 -30,0 -53,11 -69,32 -16,21 -24,54 -24,98 0,42 8,75 24,97 16,22 39,33 69,33 29,0 52,-11 68,-32 16,-22 24,-54 24,-97zm384 169l-57 0 0 -193c0,-16 -1,-30 -2,-44 -2,-13 -4,-24 -9,-32 -5,-8 -11,-15 -19,-19 -8,-4 -20,-6 -34,-6 -14,0 -29,4 -44,11 -15,8 -30,17 -44,30l0 253 -57 0 0 -339 57 0 0 38c17,-15 34,-27 50,-35 17,-8 34,-12 52,-12 33,0 60,11 78,33 19,22 28,54 28,95l0 220zm172 8c-23,0 -44,-3 -64,-9 -20,-6 -36,-13 -49,-19l0 -64 3 0c5,4 11,8 17,13 7,5 15,10 26,15 10,4 20,8 32,12 12,3 24,5 36,5 9,0 19,-1 29,-3 10,-2 18,-5 23,-8 7,-5 12,-10 15,-15 3,-5 5,-13 5,-24 0,-14 -4,-24 -11,-31 -7,-7 -20,-13 -39,-17 -7,-2 -17,-4 -28,-6 -12,-2 -23,-5 -33,-8 -26,-7 -45,-19 -56,-35 -12,-16 -18,-35 -18,-57 0,-31 11,-55 35,-75 23,-19 54,-29 92,-29 19,0 38,2 57,7 19,5 35,11 48,18l0 61 -3 0c-15,-12 -31,-21 -49,-27 -18,-7 -36,-10 -54,-10 -19,0 -35,4 -48,12 -13,8 -19,20 -19,36 0,14 4,25 12,32 8,7 20,13 37,17 8,2 18,4 28,7 10,2 21,5 33,7 25,6 44,17 57,31 13,15 19,34 19,59 0,15 -3,28 -9,41 -6,13 -14,24 -25,34 -12,10 -26,18 -41,23 -15,5 -34,8 -58,8z"/>
  <path class="fil2" d="M755 96c-32,0 -65,7 -97,19 -33,13 -64,32 -94,57 -15,13 -28,29 -42,48 -13,19 -25,40 -35,63 -11,22 -19,44 -25,64 -6,21 -9,38 -9,53 0,28 3,57 9,85 6,28 16,55 29,80 14,25 31,48 53,67 22,19 48,35 79,46 31,11 67,17 109,17 30,0 56,-4 78,-11 23,-7 42,-16 60,-27 17,-11 33,-23 46,-35l2 3c-7,50 -20,95 -38,138 -19,42 -41,81 -67,116 -26,35 -54,66 -84,93 -19,17 -37,32 -56,46 -37,27 -36,48 -28,59 10,13 33,12 40,10 25,-10 47,-25 69,-39 23,-15 46,-34 71,-55 59,-52 106,-108 143,-169 36,-61 63,-124 79,-189 16,-66 24,-132 24,-198 0,-12 -1,-27 -3,-46 -2,-19 -6,-40 -12,-62 -6,-22 -14,-45 -25,-68 -11,-23 -25,-43 -41,-63 -22,-24 -44,-44 -67,-59 -22,-15 -47,-26 -74,-34 -27,-7 -58,-11 -93,-11zm5 47c34,0 63,8 85,22 23,14 41,34 54,58 13,24 22,52 28,83 6,31 8,63 8,95 0,30 -1,58 -5,82 -3,24 -9,46 -18,64 -6,13 -16,26 -29,39 -13,13 -29,23 -49,32 -20,9 -45,13 -74,13 -35,0 -66,-11 -94,-31 -28,-20 -50,-49 -67,-84 -17,-36 -25,-77 -26,-124 0,-41 6,-78 17,-109 11,-31 25,-57 43,-78 18,-21 38,-37 60,-47 22,-11 44,-16 67,-16z"/>
  <path class="fil2" d="M58 862c0,-99 33,-172 99,-220 55,-40 122,-59 201,-59 88,0 160,24 216,72 56,48 84,115 84,200 0,69 -12,123 -37,162 -25,40 -61,70 -108,92 -47,22 -99,33 -155,33 -89,0 -162,-24 -217,-72 -55,-48 -83,-117 -83,-208zm111 0c0,69 18,120 54,154 36,34 81,51 135,51 54,0 99,-17 134,-51 36,-34 53,-86 53,-157 0,-66 -18,-116 -54,-150 -36,-34 -81,-51 -134,-51 -54,0 -99,17 -135,51 -36,34 -54,85 -54,154z"/>
 </g>
</svg>
