<?xml version="1.0" encoding="UTF-8"?>
<!DOCTYPE svg PUBLIC "-//W3C//DTD SVG 1.1//EN" "http://www.w3.org/Graphics/SVG/1.1/DTD/svg11.dtd">
<!-- Creator: CorelDRAW X5 -->
<svg xmlns="http://www.w3.org/2000/svg" xml:space="preserve" width="42.3332mm" height="12.7mm" style="shape-rendering:geometricPrecision; text-rendering:geometricPrecision; image-rendering:optimizeQuality; fill-rule:evenodd; clip-rule:evenodd"
viewBox="0 0 4233 1270"
 xmlns:xlink="http://www.w3.org/1999/xlink">
 <defs>
  <style type="text/css">
   <![CDATA[
    .fil0 {fill:#2866AD}
   ]]>
  </style>
 </defs>
 <g id="Layer_x0020_1">
  <metadata id="CorelCorpID_0Corel-Layer"/>
  <g id="_477175240">
   <path class="fil0" d="M2650 476c140,0 227,98 227,226 0,130 -86,227 -227,227 -140,0 -228,-96 -228,-227 0,-128 88,-226 228,-226zm-74 226c0,52 17,117 74,118 58,0 73,-66 73,-118 0,-51 -15,-117 -73,-117 -57,0 -73,66 -74,117z"/>
   <polygon class="fil0" points="3387,437 3545,437 3545,315 3387,315 3387,437 "/>
   <polygon class="fil0" points="3545,916 3545,491 3387,491 3387,916 "/>
   <path class="fil0" d="M1797 916l-17 -35c-32,27 -68,42 -120,42 -54,-2 -157,-8 -157,-122 0,-186 277,-101 279,-193 0,-30 -35,-29 -52,-29 -35,0 -56,7 -61,57l-142 0c0,-88 25,-162 213,-162 179,0 198,95 198,188l0 193c0,25 2,37 19,56l0 3 -159 2 0 0zm-14 -194c-57,27 -132,25 -132,68 0,27 14,41 49,41 54,0 86,-57 83,-108z"/>
   <path class="fil0" d="M843 916l-17 -35c-32,27 -66,42 -120,42 -52,-2 -156,-8 -156,-122 0,-186 277,-101 277,-193 0,-30 -34,-29 -52,-29 -34,0 -56,7 -61,57l-142 0c0,-88 27,-162 213,-162 181,0 199,95 199,188l0 193c0,25 2,37 19,56l0 3 -161 2 0 0zm-14 -194c-57,27 -130,25 -132,68 0,27 15,41 49,41 56,0 86,-57 83,-108l0 0z"/>
   <path class="fil0" d="M3869 655c0,-10 0,-24 -13,-41 -7,-8 -22,-27 -46,-27 -64,0 -81,63 -81,113 0,59 27,108 78,108 44,0 66,-41 66,-74l149 0c3,88 -57,193 -221,193 -134,0 -228,-93 -228,-228 0,-164 122,-227 226,-227 142,0 223,86 221,183l-150 0 0 0z"/>
   <path class="fil0" d="M2120 763c0,17 8,42 19,51 12,8 27,17 46,17 30,0 54,-8 54,-37 2,-71 -257,-8 -257,-177 0,-118 91,-145 186,-145 95,0 225,19 220,147l-144 0c0,-12 -5,-20 -12,-30 -10,-12 -22,-17 -44,-19 -29,-2 -56,3 -56,25 2,66 267,22 267,177 0,108 -76,157 -223,157 -93,-2 -210,-49 -210,-166l154 0 0 0 0 0z"/>
   <path class="fil0" d="M2904 491l155 0 5 51c14,-41 91,-69 139,-69 108,0 154,68 154,186l0 257 -171 0 0 -230c0,-46 -10,-79 -56,-79 -41,0 -63,46 -63,78l0 232 -164 0 0 -424 0 0z"/>
   <path class="fil0" d="M29 916l0 -598 286 0c171,0 248,83 248,203 0,128 -71,216 -248,216l-96 0 0 179 -189 0 0 0zm265 -325c46,0 95,-10 95,-63 0,-54 -52,-66 -95,-66l-76 0 0 128 76 0z"/>
   <path class="fil0" d="M1024 491l154 0 7 51c12,-41 90,-69 137,-69 110,0 154,68 154,186l0 255 -171 0 0 -228c0,-46 -8,-79 -54,-79 -42,0 -64,46 -64,78l0 230 -162 0 0 -423 0 0z"/>
   <g>
    <path class="fil0" d="M4205 861c0,-38 -30,-68 -66,-68 0,0 0,0 -1,0 -37,0 -68,30 -68,68 0,0 0,0 0,1 0,36 30,66 68,66 37,0 66,-30 66,-66l0 0zm-13 0c0,-31 -25,-56 -54,-56 0,0 0,0 0,0 -31,0 -55,25 -55,55 0,0 0,0 0,0 0,29 25,54 56,54 30,0 54,-24 54,-54l0 0z"/>
    <path class="fil0" d="M4169 896l-10 0 -20 -34 -17 0 0 34 -8 0 0 -73 30 0c14,0 26,4 26,20 0,13 -9,19 -22,19l22 34 0 0zm-34 -41c10,0 25,2 25,-12 0,-12 -10,-14 -19,-14l-20 0 0 25 14 0z"/>
   </g>
  </g>
 </g>
</svg>
